# xmcd CD database file generated by Grip 2.95
# 
# Track frame offsets:
#       150
#       13365
#       40335
#       108440
#       156813
#       255340
# 
# Disc length: 3695 seconds
# 
# Revision: 3
# Processed by: cddbd v1.4PL0 Copyright (c) Steve Scherf et al.
# Submitted via: Grip 2.95
# 
DISCID=450e6d06
DTITLE=Led Zeppelin - Plays The Blues
DYEAR=1997
DGENRE=Blues
TTITLE0=Led Zeppelin-Train Kept A-Rollin'
TTITLE1=Led Zeppelin-I Can't Quit You Baby
TTITLE2=Led Zeppelin-Dazed And Confused
TTITLE3=Led Zeppelin-You Shook Me
TTITLE4=Led Zeppelin-How Many More Times
TTITLE5=Led Zeppelin-Communications Breakdown
EXTD=YEAR: 1997 ID3G:   0
EXTT0=
EXTT1=
EXTT2=
EXTT3=
EXTT4=
EXTT5=
PLAYORDER=
